<svg id="Layer_1" enable-background="new 0 0 512 512" height="512" viewBox="0 0 512 512" width="512" xmlns="http://www.w3.org/2000/svg"><g><g fill="#f79caf"><circle cx="72" cy="72" r="56"/><circle cx="72" cy="256" r="56"/><circle cx="72" cy="440" r="56"/></g><path d="m248 16h192c30.928 0 56 25.072 56 56 0 30.928-25.072 56-56 56h-192c-30.928 0-56-25.072-56-56 0-30.928 25.072-56 56-56z" fill="#acebe2"/><path d="m248 200h192c30.928 0 56 25.072 56 56 0 30.928-25.072 56-56 56h-192c-30.928 0-56-25.072-56-56 0-30.928 25.072-56 56-56z" fill="#acebe2"/><path d="m248 384h192c30.928 0 56 25.072 56 56 0 30.928-25.072 56-56 56h-192c-30.928 0-56-25.072-56-56 0-30.928 25.072-56 56-56z" fill="#acebe2"/><path d="m128 72c0 30.93-25.07 56-56 56-7.05 0-13.79-1.3-20-3.68 21.06-8.05 36-28.44 36-52.32s-14.94-44.27-36-52.32c6.21-2.38 12.95-3.68 20-3.68 30.93 0 56 25.07 56 56z" fill="#e3889b"/><path d="m128 256c0 30.93-25.07 56-56 56-7.05 0-13.79-1.3-20-3.68 21.06-8.05 36-28.44 36-52.32s-14.94-44.27-36-52.32c6.21-2.38 12.95-3.68 20-3.68 30.93 0 56 25.07 56 56z" fill="#e3889b"/><path d="m128 440c0 30.93-25.07 56-56 56-7.05 0-13.79-1.3-20-3.68 21.06-8.05 36-28.44 36-52.32s-14.94-44.27-36-52.32c6.21-2.38 12.95-3.68 20-3.68 30.93 0 56 25.07 56 56z" fill="#e3889b"/><path d="m496 72c0 15.46-6.27 29.46-16.4 39.6-10.14 10.13-24.14 16.4-39.6 16.4h-40c15.46 0 29.46-6.27 39.6-16.4 10.13-10.14 16.4-24.14 16.4-39.6 0-30.93-25.07-56-56-56h40c30.93 0 56 25.07 56 56z" fill="#98d7ce"/><path d="m496 256c0 15.46-6.27 29.46-16.4 39.6-10.14 10.13-24.14 16.4-39.6 16.4h-40c15.46 0 29.46-6.27 39.6-16.4 10.13-10.14 16.4-24.14 16.4-39.6 0-30.93-25.07-56-56-56h40c30.93 0 56 25.07 56 56z" fill="#98d7ce"/><path d="m496 440c0 15.46-6.27 29.46-16.4 39.6-10.14 10.13-24.14 16.4-39.6 16.4h-40c15.46 0 29.46-6.27 39.6-16.4 10.13-10.14 16.4-24.14 16.4-39.6 0-30.93-25.07-56-56-56h40c30.93 0 56 25.07 56 56z" fill="#98d7ce"/><g><path d="m72 144c-39.701 0-72-32.299-72-72s32.299-72 72-72 72 32.299 72 72-32.299 72-72 72zm0-112c-22.056 0-40 17.944-40 40s17.944 40 40 40 40-17.944 40-40-17.944-40-40-40z"/></g><g><path d="m72 328c-39.701 0-72-32.299-72-72s32.299-72 72-72 72 32.299 72 72-32.299 72-72 72zm0-112c-22.056 0-40 17.944-40 40s17.944 40 40 40 40-17.944 40-40-17.944-40-40-40z"/></g><g><path d="m72 512c-39.701 0-72-32.299-72-72s32.299-72 72-72 72 32.299 72 72-32.299 72-72 72zm0-112c-22.056 0-40 17.944-40 40s17.944 40 40 40 40-17.944 40-40-17.944-40-40-40z"/></g><g><path d="m440 144h-192c-39.701 0-72-32.299-72-72s32.299-72 72-72h192c39.701 0 72 32.299 72 72s-32.299 72-72 72zm-192-112c-22.056 0-40 17.944-40 40s17.944 40 40 40h192c22.056 0 40-17.944 40-40s-17.944-40-40-40z"/></g><g><path d="m440 328h-192c-39.701 0-72-32.299-72-72s32.299-72 72-72h192c39.701 0 72 32.299 72 72s-32.299 72-72 72zm-192-112c-22.056 0-40 17.944-40 40s17.944 40 40 40h192c22.056 0 40-17.944 40-40s-17.944-40-40-40z"/></g><g><path d="m440 512h-192c-39.701 0-72-32.299-72-72s32.299-72 72-72h192c39.701 0 72 32.299 72 72s-32.299 72-72 72zm-192-112c-22.056 0-40 17.944-40 40s17.944 40 40 40h192c22.056 0 40-17.944 40-40s-17.944-40-40-40z"/></g></g></svg>